<svg width="145" height="26" viewBox="0 0 145 26" fill="none" xmlns="http://www.w3.org/2000/svg">
<path d="M29.8711 8.50507H31.3315V10.6203C31.951 9.8271 32.6148 9.21015 33.3671 8.81354C34.1194 8.41693 34.9602 8.24066 35.8896 8.24066C37.5269 8.24066 38.943 8.81354 40.0936 10.0034C41.2885 11.1491 41.8638 12.5593 41.8638 14.1898C41.8638 15.9085 41.2885 17.3186 40.1379 18.4644C38.9873 19.6542 37.5712 20.2271 35.9338 20.2271C35.0487 20.2271 34.2079 20.0508 33.4114 19.6542C32.6591 19.3017 31.951 18.7288 31.3315 17.9796V24.1491H29.8711V8.50507ZM35.801 9.65083C34.5177 9.65083 33.4556 10.0915 32.5705 10.9729C31.6855 11.8542 31.2429 12.9559 31.2429 14.278C31.2429 15.1593 31.4642 15.9525 31.8625 16.6135C32.2165 17.3186 32.7918 17.8915 33.4999 18.2881C34.2522 18.6847 35.0045 18.9051 35.801 18.9051C36.5976 18.9051 37.3499 18.6847 38.058 18.2881C38.766 17.8474 39.2971 17.2746 39.7396 16.5695C40.1379 15.8203 40.3591 15.0712 40.3591 14.278C40.3591 13.4407 40.1379 12.6915 39.7396 11.9424C39.3413 11.2373 38.766 10.6644 38.058 10.2678C37.3942 9.87117 36.6419 9.65083 35.801 9.65083Z" fill="#9599A6"/>
<path d="M44.4746 5.68475H45.8022V11.5017C46.3333 10.7966 46.9085 10.2678 47.5723 9.91526C48.2361 9.56272 48.8999 9.38645 49.6965 9.38645C50.4488 9.38645 51.1569 9.60679 51.7322 10.0034C52.3517 10.4 52.7942 10.9288 53.0598 11.5458C53.3695 12.2068 53.5023 13.2644 53.5023 14.6746V19.9627H52.1747V15.0712C52.1747 13.8814 52.1304 13.0881 52.0419 12.6915C51.8649 11.9864 51.5551 11.5017 51.1126 11.1492C50.7143 10.7966 50.139 10.6203 49.431 10.6203C48.5902 10.6203 47.8821 10.8848 47.2626 11.4136C46.5988 11.9424 46.2005 12.6034 45.9792 13.3966C45.8465 13.8814 45.8022 14.8068 45.8022 16.1729V19.9627H44.4746V5.68475Z" fill="#9599A6"/>
<path d="M61.2471 9.38641C62.8402 9.38641 64.1678 9.95929 65.2299 11.1051C66.1592 12.1627 66.646 13.3966 66.646 14.8508C66.646 16.261 66.1592 17.539 65.1414 18.5966C64.1235 19.6983 62.8402 20.2271 61.2471 20.2271C59.6539 20.2271 58.3706 19.6983 57.3528 18.5966C56.3349 17.539 55.8481 16.261 55.8481 14.8508C55.8481 13.3966 56.3349 12.1627 57.2643 11.1491C58.3263 10.0034 59.6539 9.38641 61.2471 9.38641ZM61.2471 10.7084C60.1407 10.7084 59.2114 11.1051 58.4148 11.9423C57.6183 12.7356 57.22 13.7051 57.22 14.8508C57.22 15.6 57.397 16.3051 57.751 16.9661C58.1051 17.583 58.5919 18.0678 59.2114 18.4203C59.8309 18.7729 60.4947 18.9491 61.2471 18.9491C61.9994 18.9491 62.6632 18.7729 63.2827 18.4203C63.9023 18.0678 64.389 17.583 64.7431 16.9661C65.0971 16.3051 65.2741 15.6 65.2741 14.8508C65.2741 13.7051 64.8758 12.7356 64.0793 11.9423C63.2827 11.1051 62.3534 10.7084 61.2471 10.7084Z" fill="#9599A6"/>
<path d="M70.2743 5.81693H71.6019V9.65082H73.6819V10.7966H71.6019V19.9627H70.2743V10.7966H68.46V9.65082H70.2743V5.81693Z" fill="#9599A6"/>
<path d="M80.6297 9.38641C82.2228 9.38641 83.5504 9.95929 84.5682 11.1051C85.5418 12.1627 86.0286 13.3966 86.0286 14.8508C86.0286 16.261 85.4976 17.539 84.524 18.5966C83.5062 19.6983 82.1786 20.2271 80.6297 20.2271C79.0366 20.2271 77.709 19.6983 76.7354 18.5966C75.7176 17.539 75.1865 16.261 75.1865 14.8508C75.1865 13.3966 75.6733 12.1627 76.6469 11.1491C77.6647 10.0034 78.9923 9.38641 80.6297 9.38641ZM80.6297 10.7084C79.5234 10.7084 78.5498 11.1051 77.7532 11.9423C76.9567 12.7356 76.5584 13.7051 76.5584 14.8508C76.5584 15.6 76.7354 16.3051 77.0894 16.9661C77.4877 17.583 77.9745 18.0678 78.594 18.4203C79.2136 18.7729 79.8774 18.9491 80.6297 18.9491C81.3377 18.9491 82.0458 18.7729 82.6211 18.4203C83.2406 18.0678 83.7717 17.583 84.1257 16.9661C84.4797 16.3051 84.6567 15.6 84.6567 14.8508C84.6567 13.7051 84.2585 12.7356 83.4619 11.9423C82.6653 11.1051 81.6918 10.7084 80.6297 10.7084Z" fill="#9599A6"/>
<path d="M87.9318 4.4949H97.3578L91.8261 17.0983H97.0037V19.9627H87.4893L93.0209 7.40338H87.9318V4.4949Z" fill="#9599A6"/>
<path d="M104.659 8.24066C105.765 8.24066 106.783 8.50507 107.757 9.03388C108.686 9.5627 109.438 10.3118 109.969 11.2373C110.545 12.1627 110.81 13.1763 110.81 14.2339C110.81 15.2915 110.5 16.3051 109.969 17.2305C109.438 18.2 108.686 18.9051 107.757 19.4339C106.827 19.9627 105.81 20.2271 104.703 20.2271C103.022 20.2271 101.605 19.6542 100.455 18.5085C99.3043 17.3186 98.729 15.9085 98.729 14.2339C98.729 12.4712 99.3486 10.9729 100.676 9.78303C101.827 8.76948 103.154 8.24066 104.659 8.24066ZM104.703 10.9288C103.818 10.9288 103.066 11.2373 102.491 11.8542C101.871 12.4712 101.605 13.2644 101.605 14.2339C101.605 15.2474 101.871 16.0407 102.491 16.6576C103.066 17.2746 103.818 17.583 104.703 17.583C105.633 17.583 106.385 17.2746 106.96 16.6135C107.58 15.9966 107.845 15.2034 107.845 14.2339C107.845 13.2644 107.58 12.4712 107.004 11.8542C106.385 11.2373 105.633 10.9288 104.703 10.9288Z" fill="#9599A6"/>
<path d="M118.555 8.24066C119.617 8.24066 120.635 8.50507 121.608 9.03388C122.582 9.5627 123.29 10.3118 123.865 11.2373C124.396 12.1627 124.662 13.1763 124.662 14.2339C124.662 15.2915 124.396 16.3051 123.865 17.2305C123.29 18.2 122.582 18.9051 121.653 19.4339C120.723 19.9627 119.661 20.2271 118.555 20.2271C116.917 20.2271 115.501 19.6542 114.306 18.5085C113.156 17.3186 112.581 15.9085 112.581 14.2339C112.581 12.4712 113.244 10.9729 114.572 9.78303C115.723 8.76948 117.05 8.24066 118.555 8.24066ZM118.599 10.9288C117.67 10.9288 116.962 11.2373 116.342 11.8542C115.767 12.4712 115.457 13.2644 115.457 14.2339C115.457 15.2474 115.767 16.0407 116.342 16.6576C116.917 17.2746 117.67 17.583 118.555 17.583C119.484 17.583 120.236 17.2746 120.812 16.6135C121.431 15.9966 121.741 15.2034 121.741 14.2339C121.741 13.2644 121.431 12.4712 120.856 11.8542C120.236 11.2373 119.484 10.9288 118.599 10.9288Z" fill="#9599A6"/>
<path d="M126.963 8.50507H129.839V9.87117C130.37 9.29829 130.901 8.90168 131.521 8.63727C132.096 8.37287 132.76 8.24066 133.468 8.24066C134.22 8.24066 134.84 8.41693 135.415 8.76948C135.991 9.12202 136.477 9.65083 136.831 10.3118C137.274 9.65083 137.849 9.12202 138.513 8.76948C139.177 8.41693 139.929 8.24066 140.726 8.24066C141.522 8.24066 142.275 8.41693 142.894 8.81354C143.514 9.16609 143.956 9.6949 144.222 10.2678C144.487 10.8847 144.62 11.8983 144.62 13.2644V19.9627H141.744V14.1898C141.744 12.8678 141.567 11.9864 141.257 11.5457C140.903 11.1051 140.416 10.8847 139.796 10.8847C139.265 10.8847 138.823 11.0169 138.425 11.2813C138.026 11.5457 137.761 11.9424 137.539 12.4271C137.362 12.9118 137.274 13.7051 137.274 14.8068V19.9627H134.397V14.4542C134.397 13.3966 134.309 12.6915 134.132 12.2068C133.999 11.7661 133.778 11.4135 133.468 11.1932C133.158 10.9729 132.804 10.8847 132.362 10.8847C131.875 10.8847 131.432 11.0169 131.034 11.2813C130.636 11.5898 130.326 11.9864 130.149 12.4712C129.972 13 129.839 13.7932 129.839 14.8949V19.9627H126.963V8.50507Z" fill="#9599A6"/>
<path d="M25.8879 0.440678L26.2861 0.0440678L26.6844 0.440678L26.7287 4.93559H25.8879V0.440678ZM26.2861 0.0440678H26.6844V0.440678L26.2861 0.0440678ZM21.374 0.79322V0L26.2861 0.0440678V0.837288L21.374 0.79322Z" fill="#9599A6"/>
<path fill-rule="evenodd" clip-rule="evenodd" d="M23.4545 2.82031L8.80659 2.68811L8.67383 17.3186L23.3217 17.4068L23.4545 2.82031Z" fill="#9599A6"/>
<path fill-rule="evenodd" clip-rule="evenodd" d="M17.1703 8.98984L2.52241 8.85764L2.38965 23.4441L17.0375 23.5763L17.1703 8.98984Z" fill="#9599A6"/>
<path d="M0.840814 25.5593L0.442534 25.9559L0.0442534 25.5593L0 21.1085L0.796561 21.0644L0.840814 25.5593ZM0.442534 25.9559H0.0442534V25.5593L0.442534 25.9559ZM5.35466 25.2068V26L0.442534 25.9559V25.1627L5.35466 25.2068Z" fill="#9599A6"/>
</svg>
