<svg width="145" height="26" viewBox="0 0 145 26" fill="none" xmlns="http://www.w3.org/2000/svg">
<path d="M29.873 8.50516H31.3335V10.6204C31.9531 9.82721 32.6169 9.21026 33.3693 8.81364C34.1217 8.41703 34.9625 8.24075 35.8919 8.24075C37.5294 8.24075 38.9456 8.81364 40.0963 10.0035C41.2912 11.1493 41.8665 12.5594 41.8665 14.19C41.8665 15.9086 41.2912 17.3188 40.1405 18.4646C38.9899 19.6545 37.5737 20.2273 35.9362 20.2273C35.051 20.2273 34.2102 20.0511 33.4136 19.6545C32.6612 19.3019 31.9531 18.729 31.3335 17.9799V24.1494H29.873V8.50516ZM35.8034 9.65094C34.52 9.65094 33.4578 10.0916 32.5727 10.973C31.6876 11.8544 31.245 12.9561 31.245 14.2781C31.245 15.1595 31.4663 15.9527 31.8646 16.6137C32.2186 17.3188 32.794 17.8917 33.5021 18.2883C34.2544 18.6849 35.0068 18.9053 35.8034 18.9053C36.6 18.9053 37.3524 18.6849 38.0605 18.2883C38.7686 17.8476 39.2997 17.2748 39.7422 16.5697C40.1405 15.8205 40.3618 15.0713 40.3618 14.2781C40.3618 13.4408 40.1405 12.6917 39.7422 11.9425C39.3439 11.2374 38.7686 10.6645 38.0605 10.2679C37.3966 9.87128 36.6443 9.65094 35.8034 9.65094Z" fill="#B8C4D9"/>
<path d="M44.4775 5.68481H45.8051V11.5014C46.3362 10.7964 46.9115 10.2676 47.5753 9.91508C48.2391 9.56256 48.9029 9.3863 49.6994 9.3863C50.4517 9.3863 51.1598 9.60662 51.7351 10.0032C52.3546 10.3998 52.7972 10.9286 53.0627 11.5455C53.3725 12.2065 53.5052 13.264 53.5052 14.6741V19.962H52.1776V15.0707C52.1776 13.881 52.1334 13.0878 52.0449 12.6912C51.8679 11.9861 51.5581 11.5014 51.1155 11.1489C50.7173 10.7964 50.142 10.6201 49.4339 10.6201C48.5931 10.6201 47.885 10.8845 47.2655 11.4133C46.6017 11.9421 46.2034 12.6031 45.9822 13.3962C45.8494 13.881 45.8051 14.8063 45.8051 16.1724V19.962H44.4775V5.68481Z" fill="#B8C4D9"/>
<path d="M61.251 9.38651C62.8441 9.38651 64.1717 9.95935 65.2338 11.1051C66.1631 12.1626 66.6499 13.3964 66.6499 14.8506C66.6499 16.2607 66.1631 17.5386 65.1453 18.5961C64.1274 19.6978 62.8441 20.2266 61.251 20.2266C59.6578 20.2266 58.3745 19.6978 57.3567 18.5961C56.3388 17.5386 55.8521 16.2607 55.8521 14.8506C55.8521 13.3964 56.3388 12.1626 57.2682 11.1491C58.3302 10.0034 59.6578 9.38651 61.251 9.38651ZM61.251 10.7085C60.1446 10.7085 59.2153 11.1051 58.4187 11.9423C57.6222 12.7355 57.2239 13.7049 57.2239 14.8506C57.2239 15.5997 57.4009 16.3048 57.7549 16.9657C58.109 17.5826 58.5958 18.0674 59.2153 18.4199C59.8349 18.7724 60.4987 18.9487 61.251 18.9487C62.0033 18.9487 62.6671 18.7724 63.2866 18.4199C63.9062 18.0674 64.393 17.5826 64.747 16.9657C65.101 16.3048 65.278 15.5997 65.278 14.8506C65.278 13.7049 64.8797 12.7355 64.0832 11.9423C63.2866 11.1051 62.3573 10.7085 61.251 10.7085Z" fill="#B8C4D9"/>
<path d="M70.2792 5.81699H71.6068V9.65067H73.6867V10.7964H71.6068V19.9619H70.2792V10.7964H68.4648V9.65067H70.2792V5.81699Z" fill="#B8C4D9"/>
<path d="M80.6351 9.38651C82.2282 9.38651 83.5558 9.95935 84.5736 11.1051C85.5472 12.1626 86.034 13.3964 86.034 14.8506C86.034 16.2607 85.5029 17.5386 84.5294 18.5961C83.5115 19.6978 82.1839 20.2266 80.6351 20.2266C79.0419 20.2266 77.7143 19.6978 76.7408 18.5961C75.7229 17.5386 75.1919 16.2607 75.1919 14.8506C75.1919 13.3964 75.6787 12.1626 76.6523 11.1491C77.6701 10.0034 78.9977 9.38651 80.6351 9.38651ZM80.6351 10.7085C79.5287 10.7085 78.5552 11.1051 77.7586 11.9423C76.962 12.7355 76.5637 13.7049 76.5637 14.8506C76.5637 15.5997 76.7408 16.3048 77.0948 16.9657C77.4931 17.5826 77.9799 18.0674 78.5994 18.4199C79.219 18.7724 79.8828 18.9487 80.6351 18.9487C81.3431 18.9487 82.0512 18.7724 82.6265 18.4199C83.246 18.0674 83.777 17.5826 84.1311 16.9657C84.4851 16.3048 84.6621 15.5997 84.6621 14.8506C84.6621 13.7049 84.2638 12.7355 83.4673 11.9423C82.6707 11.1051 81.6971 10.7085 80.6351 10.7085Z" fill="#B8C4D9"/>
<path d="M87.9377 4.49493H97.3643L91.8322 17.0985H97.0103V19.9629H87.4951L93.0272 7.40344H87.9377V4.49493Z" fill="#00AFEF"/>
<path d="M104.666 8.24075C105.772 8.24075 106.79 8.50514 107.764 9.03393C108.693 9.56271 109.445 10.3118 109.976 11.2372C110.551 12.1626 110.817 13.1761 110.817 14.2336C110.817 15.2912 110.507 16.3047 109.976 17.2301C109.445 18.1995 108.693 18.9045 107.764 19.4333C106.834 19.9621 105.816 20.2265 104.71 20.2265C103.028 20.2265 101.612 19.6537 100.462 18.508C99.3111 17.3182 98.7358 15.9081 98.7358 14.2336C98.7358 12.471 99.3554 10.9728 100.683 9.78304C101.834 8.76954 103.161 8.24075 104.666 8.24075ZM104.71 10.9287C103.825 10.9287 103.073 11.2372 102.497 11.8541C101.878 12.471 101.612 13.2642 101.612 14.2336C101.612 15.2471 101.878 16.0403 102.497 16.6572C103.073 17.2741 103.825 17.5826 104.71 17.5826C105.639 17.5826 106.392 17.2741 106.967 16.6132C107.587 15.9962 107.852 15.2031 107.852 14.2336C107.852 13.2642 107.587 12.471 107.011 11.8541C106.392 11.2372 105.639 10.9287 104.71 10.9287Z" fill="#00AFEF"/>
<path d="M118.563 8.24075C119.625 8.24075 120.642 8.50514 121.616 9.03393C122.59 9.56271 123.298 10.3118 123.873 11.2372C124.404 12.1626 124.67 13.1761 124.67 14.2336C124.67 15.2912 124.404 16.3047 123.873 17.2301C123.298 18.1995 122.59 18.9045 121.66 19.4333C120.731 19.9621 119.669 20.2265 118.563 20.2265C116.925 20.2265 115.509 19.6537 114.314 18.508C113.164 17.3182 112.588 15.9081 112.588 14.2336C112.588 12.471 113.252 10.9728 114.58 9.78304C115.73 8.76954 117.058 8.24075 118.563 8.24075ZM118.607 10.9287C117.678 10.9287 116.969 11.2372 116.35 11.8541C115.775 12.471 115.465 13.2642 115.465 14.2336C115.465 15.2471 115.775 16.0403 116.35 16.6572C116.925 17.2741 117.678 17.5826 118.563 17.5826C119.492 17.5826 120.244 17.2741 120.82 16.6132C121.439 15.9962 121.749 15.2031 121.749 14.2336C121.749 13.2642 121.439 12.471 120.864 11.8541C120.244 11.2372 119.492 10.9287 118.607 10.9287Z" fill="#00AFEF"/>
<path d="M126.972 8.50516H129.848V9.87128C130.379 9.29839 130.911 8.90178 131.53 8.63737C132.105 8.37296 132.769 8.24075 133.477 8.24075C134.23 8.24075 134.849 8.41703 135.425 8.76957C136 9.12212 136.487 9.65094 136.841 10.312C137.283 9.65094 137.859 9.12212 138.523 8.76957C139.186 8.41703 139.939 8.24075 140.735 8.24075C141.532 8.24075 142.284 8.41703 142.904 8.81364C143.524 9.16619 143.966 9.69501 144.232 10.2679C144.497 10.8849 144.63 11.8984 144.63 13.2645V19.9629H141.753V14.19C141.753 12.8679 141.576 11.9866 141.267 11.5459C140.912 11.1052 140.426 10.8849 139.806 10.8849C139.275 10.8849 138.832 11.0171 138.434 11.2815C138.036 11.5459 137.77 11.9425 137.549 12.4272C137.372 12.912 137.283 13.7052 137.283 14.8069V19.9629H134.407V14.4544C134.407 13.3967 134.318 12.6917 134.141 12.2069C134.008 11.7662 133.787 11.4137 133.477 11.1933C133.168 10.973 132.814 10.8849 132.371 10.8849C131.884 10.8849 131.442 11.0171 131.043 11.2815C130.645 11.5899 130.335 11.9866 130.158 12.4713C129.981 13.0001 129.848 13.7934 129.848 14.8951V19.9629H126.972V8.50516Z" fill="#00AFEF"/>
<path d="M25.8893 0.440653L26.2876 0.0440653L26.6859 0.440653L26.7301 4.93531H25.8893V0.440653ZM26.2876 0.0440653H26.6859V0.440653L26.2876 0.0440653ZM21.3755 0.793175V0L26.2876 0.0440653V0.83724L21.3755 0.793175Z" fill="#00AFEF"/>
<path fill-rule="evenodd" clip-rule="evenodd" d="M23.456 2.82035L8.80709 2.68814L8.67432 17.3188L23.3232 17.407L23.456 2.82035Z" fill="#00AFEF" fill-opacity="0.278431"/>
<path fill-rule="evenodd" clip-rule="evenodd" d="M17.1713 8.98993L2.52242 8.85773L2.38965 23.4443L17.0385 23.5765L17.1713 8.98993Z" fill="#00AFEF" fill-opacity="0.6"/>
<path d="M0.840814 25.5594L0.442534 25.9559L0.0442534 25.5594L0 21.1088L0.796561 21.0647L0.840814 25.5594ZM0.442534 25.9559H0.0442534V25.5594L0.442534 25.9559ZM5.35466 25.2068V26L0.442534 25.9559V25.1628L5.35466 25.2068Z" fill="#00AFEF"/>
</svg>
