<svg width="145" height="26" viewBox="0 0 145 26" fill="none" xmlns="http://www.w3.org/2000/svg">
<g clip-path="url(#clip0_75_1355)">
<path d="M29.8721 8.50579H31.3325V10.6207C31.9521 9.82761 32.6159 9.21076 33.3682 8.81421C34.1205 8.41767 34.9614 8.24142 35.8907 8.24142C37.5282 8.24142 38.9443 8.81421 40.095 10.0039C41.2898 11.1494 41.8651 12.5594 41.8651 14.1896C41.8651 15.908 41.2898 17.3179 40.1392 18.4635C38.9886 19.6532 37.5724 20.226 35.935 20.226C35.0499 20.226 34.2091 20.0497 33.4125 19.6532C32.6601 19.3007 31.9521 18.7279 31.3325 17.9789V24.1474H29.8721V8.50579ZM35.8022 9.65137C34.5188 9.65137 33.4567 10.092 32.5716 10.9732C31.6865 11.8544 31.244 12.9559 31.244 14.2777C31.244 15.159 31.4652 15.9521 31.8635 16.613C32.2176 17.3179 32.7929 17.8907 33.501 18.2873C34.2533 18.6838 35.0056 18.9041 35.8022 18.9041C36.5988 18.9041 37.3511 18.6838 38.0592 18.2873C38.7673 17.8467 39.2984 17.2739 39.7409 16.5689C40.1392 15.8199 40.3605 15.0708 40.3605 14.2777C40.3605 13.4406 40.1392 12.6916 39.7409 11.9425C39.3426 11.2376 38.7673 10.6648 38.0592 10.2682C37.3954 9.87167 36.6431 9.65137 35.8022 9.65137Z" fill="#434354"/>
<path d="M44.4761 5.68591H45.8037V11.5019C46.3348 10.797 46.9101 10.2682 47.5739 9.91575C48.2377 9.56326 48.9016 9.38702 49.6982 9.38702C50.4505 9.38702 51.1586 9.60732 51.7339 10.0039C52.3534 10.4004 52.796 10.9291 53.0615 11.546C53.3713 12.2069 53.5041 13.2644 53.5041 14.6743V19.9616H52.1764V15.0709C52.1764 13.8812 52.1322 13.0881 52.0437 12.6916C51.8666 11.9866 51.5569 11.5019 51.1143 11.1494C50.716 10.797 50.1407 10.6207 49.4326 10.6207C48.5918 10.6207 47.8837 10.8851 47.2641 11.4138C46.6003 11.9425 46.202 12.6035 45.9807 13.3965C45.848 13.8812 45.8037 14.8065 45.8037 16.1724V19.9616H44.4761V5.68591Z" fill="#434354"/>
<path d="M61.2487 9.38702C62.8419 9.38702 64.1695 9.95981 65.2316 11.1054C66.161 12.1629 66.6478 13.3966 66.6478 14.8506C66.6478 16.2605 66.161 17.5383 65.1431 18.5957C64.1253 19.6972 62.8419 20.226 61.2487 20.226C59.6555 20.226 58.3721 19.6972 57.3543 18.5957C56.3364 17.5383 55.8496 16.2605 55.8496 14.8506C55.8496 13.3966 56.3364 12.1629 57.2658 11.1495C58.3279 10.0039 59.6555 9.38702 61.2487 9.38702ZM61.2487 10.7088C60.1423 10.7088 59.213 11.1054 58.4164 11.9425C57.6198 12.7356 57.2215 13.705 57.2215 14.8506C57.2215 15.5996 57.3985 16.3046 57.7526 16.9655C58.1066 17.5823 58.5934 18.067 59.213 18.4195C59.8325 18.772 60.4964 18.9482 61.2487 18.9482C62.001 18.9482 62.6649 18.772 63.2844 18.4195C63.904 18.067 64.3908 17.5823 64.7448 16.9655C65.0989 16.3046 65.2759 15.5996 65.2759 14.8506C65.2759 13.705 64.8776 12.7356 64.081 11.9425C63.2844 11.1054 62.3551 10.7088 61.2487 10.7088Z" fill="#434354"/>
<path d="M70.2769 5.81808H71.6045V9.65137H73.6845V10.797H71.6045V19.9616H70.2769V10.797H68.4624V9.65137H70.2769V5.81808Z" fill="#434354"/>
<path d="M80.6323 9.38702C82.2255 9.38702 83.5531 9.95981 84.571 11.1054C85.5446 12.1629 86.0314 13.3966 86.0314 14.8506C86.0314 16.2605 85.5004 17.5383 84.5267 18.5957C83.5089 19.6972 82.1812 20.226 80.6323 20.226C79.0391 20.226 77.7115 19.6972 76.7379 18.5957C75.72 17.5383 75.189 16.2605 75.189 14.8506C75.189 13.3966 75.6758 12.1629 76.6494 11.1495C77.6672 10.0039 78.9949 9.38702 80.6323 9.38702ZM80.6323 10.7088C79.5259 10.7088 78.5523 11.1054 77.7557 11.9425C76.9592 12.7356 76.5609 13.705 76.5609 14.8506C76.5609 15.5996 76.7379 16.3046 77.0919 16.9655C77.4902 17.5823 77.977 18.067 78.5966 18.4195C79.2162 18.772 79.88 18.9482 80.6323 18.9482C81.3404 18.9482 82.0485 18.772 82.6238 18.4195C83.2434 18.067 83.7744 17.5823 84.1285 16.9655C84.4825 16.3046 84.6595 15.5996 84.6595 14.8506C84.6595 13.705 84.2612 12.7356 83.4646 11.9425C82.668 11.1054 81.6944 10.7088 80.6323 10.7088Z" fill="#434354"/>
<path d="M87.9342 4.49628H97.3605L91.8287 17.0977H97.0065V19.9616H87.4917L93.0236 7.40429H87.9342V4.49628Z" fill="#00AFEF"/>
<path d="M104.663 8.24142C105.769 8.24142 106.787 8.50579 107.761 9.03452C108.69 9.56325 109.443 10.3123 109.974 11.2376C110.549 12.1628 110.814 13.1762 110.814 14.2337C110.814 15.2911 110.505 16.3045 109.974 17.2298C109.443 18.1992 108.69 18.9041 107.761 19.4329C106.832 19.9616 105.814 20.2259 104.707 20.2259C103.026 20.2259 101.609 19.6532 100.459 18.5076C99.3082 17.3179 98.7329 15.908 98.7329 14.2337C98.7329 12.4713 99.3525 10.9732 100.68 9.78355C101.831 8.77015 103.158 8.24142 104.663 8.24142ZM104.707 10.9291C103.822 10.9291 103.07 11.2376 102.495 11.8544C101.875 12.4713 101.609 13.2644 101.609 14.2337C101.609 15.2471 101.875 16.0402 102.495 16.657C103.07 17.2739 103.822 17.5823 104.707 17.5823C105.637 17.5823 106.389 17.2739 106.964 16.613C107.584 15.9961 107.849 15.203 107.849 14.2337C107.849 13.2644 107.584 12.4713 107.009 11.8544C106.389 11.2376 105.637 10.9291 104.707 10.9291Z" fill="#00AFEF"/>
<path d="M118.559 8.24142C119.621 8.24142 120.639 8.50579 121.612 9.03452C122.586 9.56325 123.294 10.3123 123.869 11.2376C124.401 12.1628 124.666 13.1762 124.666 14.2337C124.666 15.2911 124.401 16.3045 123.869 17.2298C123.294 18.1992 122.586 18.9041 121.657 19.4329C120.727 19.9616 119.665 20.2259 118.559 20.2259C116.921 20.2259 115.505 19.6532 114.31 18.5076C113.16 17.3179 112.584 15.908 112.584 14.2337C112.584 12.4713 113.248 10.9732 114.576 9.78355C115.727 8.77015 117.054 8.24142 118.559 8.24142ZM118.603 10.9291C117.674 10.9291 116.966 11.2376 116.346 11.8544C115.771 12.4713 115.461 13.2644 115.461 14.2337C115.461 15.2471 115.771 16.0402 116.346 16.657C116.921 17.2739 117.674 17.5823 118.559 17.5823C119.488 17.5823 120.241 17.2739 120.816 16.613C121.435 15.9961 121.745 15.203 121.745 14.2337C121.745 13.2644 121.435 12.4713 120.86 11.8544C120.241 11.2376 119.488 10.9291 118.603 10.9291Z" fill="#00AFEF"/>
<path d="M126.967 8.50579H129.844V9.87167C130.375 9.29888 130.906 8.90234 131.526 8.63797C132.101 8.37361 132.765 8.24142 133.473 8.24142C134.225 8.24142 134.845 8.41767 135.42 8.77015C135.995 9.12264 136.482 9.65137 136.836 10.3123C137.279 9.65137 137.854 9.12264 138.518 8.77015C139.182 8.41767 139.934 8.24142 140.731 8.24142C141.527 8.24142 142.279 8.41767 142.899 8.81421C143.519 9.1667 143.961 9.69543 144.227 10.2682C144.492 10.8851 144.625 11.8985 144.625 13.2644V19.9616H141.748V14.1896C141.748 12.8678 141.571 11.9866 141.262 11.546C140.908 11.1054 140.421 10.8851 139.801 10.8851C139.27 10.8851 138.828 11.0173 138.429 11.2816C138.031 11.546 137.765 11.9425 137.544 12.4272C137.367 12.9119 137.279 13.705 137.279 14.8065V19.9616H134.402V14.454C134.402 13.3965 134.314 12.6916 134.137 12.2069C134.004 11.7663 133.783 11.4138 133.473 11.1935C133.163 10.9732 132.809 10.8851 132.366 10.8851C131.88 10.8851 131.437 11.0173 131.039 11.2816C130.64 11.59 130.331 11.9866 130.154 12.4713C129.977 13 129.844 13.7931 129.844 14.8946V19.9616H126.967V8.50579Z" fill="#00AFEF"/>
<path d="M25.889 0.442683L26.2873 0.046136L26.6856 0.442683L26.7298 4.93688H25.889V0.442683ZM26.2873 0.046136H26.6856V0.442683L26.2873 0.046136ZM21.375 0.795169V0.0020752L26.2873 0.046136V0.83923L21.375 0.795169Z" fill="#00AFEF"/>
<path fill-rule="evenodd" clip-rule="evenodd" d="M23.455 2.82197L8.80659 2.68979L8.67383 17.318L23.3222 17.4061L23.455 2.82197Z" fill="#00AFEF" fill-opacity="0.278431"/>
<path fill-rule="evenodd" clip-rule="evenodd" d="M17.1708 8.99046L2.52241 8.85828L2.38965 23.4424L17.038 23.5746L17.1708 8.99046Z" fill="#00AFEF" fill-opacity="0.6"/>
<path d="M0.840843 25.5573L0.442549 25.9539L0.0442549 25.5573L0 21.1072L0.796588 21.0631L0.840843 25.5573ZM0.442549 25.9539H0.0442549V25.5573L0.442549 25.9539ZM5.35484 25.2048V25.9979L0.442549 25.9539V25.1608L5.35484 25.2048Z" fill="#00AFEF"/>
</g>
<defs>
<clipPath id="clip0_75_1355">
<rect width="144.625" height="26" fill="white"/>
</clipPath>
</defs>
</svg>
