<svg width="27" height="21" viewBox="0 0 27 21" fill="none" xmlns="http://www.w3.org/2000/svg">
<path d="M26 0V21" stroke="white" stroke-opacity="0.9" stroke-width="2"/>
<path d="M8.33317 15.75C9.81232 15.7497 11.2488 15.2298 12.414 14.273L16.0773 18.1195L17.2557 16.8823L13.5923 13.0358C14.504 11.8122 14.9995 10.3035 14.9998 8.75C14.9998 4.89038 12.009 1.75 8.33317 1.75C4.65734 1.75 1.6665 4.89038 1.6665 8.75C1.6665 12.6096 4.65734 15.75 8.33317 15.75ZM8.33317 3.5C11.0907 3.5 13.3332 5.85463 13.3332 8.75C13.3332 11.6454 11.0907 14 8.33317 14C5.57567 14 3.33317 11.6454 3.33317 8.75C3.33317 5.85463 5.57567 3.5 8.33317 3.5Z" fill="white"/>
</svg>
