<svg width="185" height="149" viewBox="0 0 185 149" fill="none" xmlns="http://www.w3.org/2000/svg">
<path d="M168.954 127.061C156.035 141.067 136.486 148.167 110.859 148.167L101.651 148.167L101.651 122.209L109.054 120.726C121.67 118.203 130.445 113.24 135.141 105.956C137.592 102.032 138.981 97.5392 139.175 92.917L110.859 92.917C108.417 92.917 106.075 91.9468 104.348 90.2199C102.621 88.493 101.651 86.1509 101.651 83.7087L101.651 19.2503C101.651 9.09354 109.91 0.833657 120.067 0.833658L175.317 0.833663C177.759 0.833663 180.102 1.80382 181.829 3.53072C183.555 5.25761 184.526 7.59979 184.526 10.042L184.526 56.0837L184.498 82.9628C184.581 83.9849 186.33 108.203 168.954 127.061ZM18.7756 0.833649L74.0256 0.833654C76.4678 0.833654 78.81 1.80381 80.5369 3.53071C82.2638 5.2576 83.2339 7.59978 83.2339 10.042L83.2339 56.0837L83.2063 82.9628C83.2892 83.9849 85.0388 108.203 67.6626 127.061C54.7434 141.067 35.1941 148.167 9.56726 148.167L0.358932 148.167L0.358935 122.209L7.76244 120.726C20.3779 118.203 29.1534 113.24 33.8496 105.956C36.3 102.032 37.6898 97.5392 37.8829 92.917L9.56727 92.917C7.12506 92.917 4.78289 91.9468 3.05599 90.2199C1.32909 88.493 0.358938 86.1508 0.358938 83.7086L0.358944 19.2503C0.358945 9.09353 8.61881 0.833649 18.7756 0.833649Z" fill="white"/>
</svg>
