<svg width="185" height="149" viewBox="0 0 185 149" fill="none" xmlns="http://www.w3.org/2000/svg">
<path d="M15.9881 21.939C28.9074 7.93312 48.4567 0.833496 74.0835 0.833496H83.2918V26.7918L75.8883 28.2743C63.2729 30.7974 54.4973 35.7607 49.8011 43.0445C47.3507 46.9684 45.9609 51.4613 45.7678 56.0835H74.0835C76.5257 56.0835 78.8678 57.0537 80.5947 58.7806C82.3216 60.5075 83.2918 62.8496 83.2918 65.2918V129.75C83.2918 139.907 75.0319 148.167 64.8751 148.167H9.62512C7.18292 148.167 4.84074 147.197 3.11385 145.47C1.38695 143.743 0.416787 141.401 0.416787 138.958V92.9168L0.444412 66.0377C0.361537 65.0156 -1.38805 40.7977 15.9881 21.939ZM166.167 148.167H110.917C108.475 148.167 106.132 147.197 104.406 145.47C102.679 143.743 101.708 141.401 101.708 138.958V92.9168L101.736 66.0377C101.653 65.0156 99.9036 40.7977 117.28 21.939C130.199 7.93312 149.748 0.833496 175.375 0.833496H184.583V26.7918L177.18 28.2743C164.565 30.7974 155.789 35.7607 151.093 43.0445C148.642 46.9684 147.253 51.4613 147.059 56.0835H175.375C177.817 56.0835 180.16 57.0537 181.886 58.7806C183.613 60.5075 184.583 62.8496 184.583 65.2918V129.75C184.583 139.907 176.324 148.167 166.167 148.167Z" fill="white"/>
</svg>
